<svg width="80" height="99" viewBox="0 0 80 99" fill="none" xmlns="http://www.w3.org/2000/svg">
<path d="M14.2708 64.1089C15.4487 64.1089 16.4752 63.6717 17.3505 62.7974C18.2248 61.9231 18.662 60.8965 18.662 59.7177C18.662 58.5399 18.2248 57.5138 17.3505 56.6395C16.4752 55.7642 15.4487 55.3266 14.2708 55.3266C13.093 55.3266 12.0665 55.7642 11.1912 56.6395C10.3169 57.5138 9.8797 58.5399 9.8797 59.7177C9.8797 60.8965 10.3169 61.9231 11.1912 62.7974C12.0665 63.6717 13.093 64.1089 14.2708 64.1089ZM22.8333 46.9839C24.0112 46.9839 25.0377 46.5467 25.913 45.6724C26.7873 44.7981 27.2245 43.7715 27.2245 42.5927C27.2245 41.4149 26.7873 40.3888 25.913 39.5145C25.0377 38.6392 24.0112 38.2016 22.8333 38.2016C21.6555 38.2016 20.629 38.6392 19.7537 39.5145C18.8794 40.3888 18.4422 41.4149 18.4422 42.5927C18.4422 43.7715 18.8794 44.7981 19.7537 45.6724C20.629 46.5467 21.6555 46.9839 22.8333 46.9839ZM22.8333 81.2339C24.0112 81.2339 25.0377 80.7967 25.913 79.9224C26.7873 79.0481 27.2245 78.0215 27.2245 76.8427C27.2245 75.6649 26.7873 74.6388 25.913 73.7645C25.0377 72.8892 24.0112 72.4516 22.8333 72.4516C21.6555 72.4516 20.629 72.8892 19.7537 73.7645C18.8794 74.6388 18.4422 75.6649 18.4422 76.8427C18.4422 78.0215 18.8794 79.0481 19.7537 79.9224C20.629 80.7967 21.6555 81.2339 22.8333 81.2339ZM31.3958 64.1089C32.5737 64.1089 33.6002 63.6717 34.4755 62.7974C35.3498 61.9231 35.787 60.8965 35.787 59.7177C35.787 58.5399 35.3498 57.5138 34.4755 56.6395C33.6002 55.7642 32.5737 55.3266 31.3958 55.3266C30.218 55.3266 29.1915 55.7642 28.3162 56.6395C27.4419 57.5138 27.0047 58.5399 27.0047 59.7177C27.0047 60.8965 27.4419 61.9231 28.3162 62.7974C29.1915 63.6717 30.218 64.1089 31.3958 64.1089ZM31.3958 29.8589C32.5737 29.8589 33.6002 29.4217 34.4755 28.5474C35.3498 27.6731 35.787 26.6465 35.787 25.4677C35.787 24.2899 35.3498 23.2638 34.4755 22.3895C33.6002 21.5142 32.5737 21.0766 31.3958 21.0766C30.218 21.0766 29.1915 21.5142 28.3162 22.3895C27.4419 23.2638 27.0047 24.2899 27.0047 25.4677C27.0047 26.6465 27.4419 27.6731 28.3162 28.5474C29.1915 29.4217 30.218 29.8589 31.3958 29.8589ZM39.9583 46.9839C41.1362 46.9839 42.1627 46.5467 43.038 45.6724C43.9123 44.7981 44.3495 43.7715 44.3495 42.5927C44.3495 41.4149 43.9123 40.3888 43.038 39.5145C42.1627 38.6392 41.1362 38.2016 39.9583 38.2016C38.7805 38.2016 37.754 38.6392 36.8787 39.5145C36.0044 40.3888 35.5672 41.4149 35.5672 42.5927C35.5672 43.7715 36.0044 44.7981 36.8787 45.6724C37.754 46.5467 38.7805 46.9839 39.9583 46.9839ZM39.9583 81.2339C41.1362 81.2339 42.1627 80.7967 43.038 79.9224C43.9123 79.0481 44.3495 78.0215 44.3495 76.8427C44.3495 75.6649 43.9123 74.6388 43.038 73.7645C42.1627 72.8892 41.1362 72.4516 39.9583 72.4516C38.7805 72.4516 37.754 72.8892 36.8787 73.7645C36.0044 74.6388 35.5672 75.6649 35.5672 76.8427C35.5672 78.0215 36.0044 79.0481 36.8787 79.9224C37.754 80.7967 38.7805 81.2339 39.9583 81.2339ZM48.5208 64.1089C49.6987 64.1089 50.7252 63.6717 51.6005 62.7974C52.4748 61.9231 52.912 60.8965 52.912 59.7177C52.912 58.5399 52.4748 57.5138 51.6005 56.6395C50.7252 55.7642 49.6987 55.3266 48.5208 55.3266C47.343 55.3266 46.3165 55.7642 45.4412 56.6395C44.5669 57.5138 44.1297 58.5399 44.1297 59.7177C44.1297 60.8965 44.5669 61.9231 45.4412 62.7974C46.3165 63.6717 47.343 64.1089 48.5208 64.1089ZM48.5208 29.8589C49.6987 29.8589 50.7252 29.4217 51.6005 28.5474C52.4748 27.6731 52.912 26.6465 52.912 25.4677C52.912 24.2899 52.4748 23.2638 51.6005 22.3895C50.7252 21.5142 49.6987 21.0766 48.5208 21.0766C47.343 21.0766 46.3165 21.5142 45.4412 22.3895C44.5669 23.2638 44.1297 24.2899 44.1297 25.4677C44.1297 26.6465 44.5669 27.6731 45.4412 28.5474C46.3165 29.4217 47.343 29.8589 48.5208 29.8589ZM57.0833 46.9839C58.2612 46.9839 59.2877 46.5467 60.163 45.6724C61.0373 44.7981 61.4745 43.7715 61.4745 42.5927C61.4745 41.4149 61.0373 40.3888 60.163 39.5145C59.2877 38.6392 58.2612 38.2016 57.0833 38.2016C55.9055 38.2016 54.879 38.6392 54.0037 39.5145C53.1294 40.3888 52.6922 41.4149 52.6922 42.5927C52.6922 43.7715 53.1294 44.7981 54.0037 45.6724C54.879 46.5467 55.9055 46.9839 57.0833 46.9839ZM57.0833 81.2339C58.2612 81.2339 59.2877 80.7967 60.163 79.9224C61.0373 79.0481 61.4745 78.0215 61.4745 76.8427C61.4745 75.6649 61.0373 74.6388 60.163 73.7645C59.2877 72.8892 58.2612 72.4516 57.0833 72.4516C55.9055 72.4516 54.879 72.8892 54.0037 73.7645C53.1294 74.6388 52.6922 75.6649 52.6922 76.8427C52.6922 78.0215 53.1294 79.0481 54.0037 79.9224C54.879 80.7967 55.9055 81.2339 57.0833 81.2339ZM65.6458 64.1089C66.8237 64.1089 67.8502 63.6717 68.7255 62.7974C69.5998 61.9231 70.037 60.8965 70.037 59.7177C70.037 58.5399 69.5998 57.5138 68.7255 56.6395C67.8502 55.7642 66.8237 55.3266 65.6458 55.3266C64.468 55.3266 63.4415 55.7642 62.5662 56.6395C61.6919 57.5138 61.2547 58.5399 61.2547 59.7177C61.2547 60.8965 61.6919 61.9231 62.5662 62.7974C63.4415 63.6717 64.468 64.1089 65.6458 64.1089ZM11.411 86.8052C3.80365 78.9553 0 69.185 0 57.4943C0 52.3169 1.1783 47.1033 3.53489 41.8535C5.89148 36.6028 8.83698 31.5638 12.3714 26.7364C15.9067 21.91 19.7232 17.3586 23.8209 13.0821C27.9195 8.80559 31.725 5.08518 35.2375 1.92086C35.9254 1.30626 36.6727 0.832465 37.4795 0.499479C38.2872 0.166493 39.1135 0 39.9583 0C40.8032 0 41.6294 0.166493 42.4372 0.499479C43.244 0.832465 43.9913 1.30626 44.6791 1.92086C48.1917 5.08518 51.9972 8.80559 56.0958 13.0821C60.1934 17.3586 64.0099 21.91 67.5453 26.7364C71.0797 31.5638 74.0252 36.6028 76.3818 41.8535C78.7384 47.1033 79.9167 52.3169 79.9167 57.4943C79.9167 69.185 76.1064 78.9553 68.4857 86.8052C60.8642 94.6542 51.3484 98.5786 39.9384 98.5786C28.5274 98.5786 19.0183 94.6542 11.411 86.8052ZM64.5042 82.8094C70.9736 76.1021 74.2083 67.6585 74.2083 57.4786C74.2083 50.5335 71.3304 42.6845 65.5745 33.9318C59.8186 25.179 51.2799 15.6175 39.9583 5.24739C28.6368 15.6175 20.0981 25.179 14.3422 33.9318C8.58628 42.6845 5.70833 50.5335 5.70833 57.4786C5.70833 67.6585 8.94306 76.1021 15.4125 82.8094C21.8819 89.5167 30.0639 92.8703 39.9583 92.8703C49.8528 92.8703 58.0347 89.5167 64.5042 82.8094Z" fill="white"/>
</svg>
