<svg width="96" height="100" viewBox="0 0 96 100" fill="none" xmlns="http://www.w3.org/2000/svg">
<path d="M60.2469 38.7922C59.025 37.5703 58.4141 36.0979 58.4141 34.375C58.4141 33.2448 58.6484 32.149 59.1172 31.0875C59.5859 30.026 60.1526 29.0406 60.8172 28.1312C61.4828 27.2219 62.1703 26.3724 62.8797 25.5828C63.588 24.7932 64.1828 24.1182 64.6641 23.5578C65.1453 24.1182 65.7401 24.7932 66.4484 25.5828C67.1578 26.3724 67.8453 27.2219 68.5109 28.1312C69.1755 29.0406 69.7422 30.026 70.2109 31.0875C70.6797 32.149 70.9141 33.2448 70.9141 34.375C70.9141 36.0979 70.3031 37.5703 69.0813 38.7922C67.8594 40.0141 66.387 40.625 64.6641 40.625C62.9411 40.625 61.4687 40.0141 60.2469 38.7922ZM85.2469 20.0422C84.025 18.8203 83.4141 17.3479 83.4141 15.625C83.4141 14.4948 83.6484 13.399 84.1172 12.3375C84.5859 11.276 85.1526 10.2906 85.8172 9.38125C86.4828 8.47187 87.1703 7.62239 87.8797 6.83281C88.588 6.04323 89.1828 5.36823 89.6641 4.80782C90.1453 5.36823 90.7401 6.04323 91.4484 6.83281C92.1578 7.62239 92.8453 8.47187 93.5109 9.38125C94.1755 10.2906 94.7422 11.276 95.2109 12.3375C95.6797 13.399 95.9141 14.4948 95.9141 15.625C95.9141 17.3479 95.3031 18.8203 94.0813 20.0422C92.8594 21.2641 91.387 21.875 89.6641 21.875C87.9411 21.875 86.4687 21.2641 85.2469 20.0422ZM85.2469 57.5422C84.025 56.3203 83.4141 54.8479 83.4141 53.125C83.4141 51.9948 83.6484 50.899 84.1172 49.8375C84.5859 48.776 85.1526 47.7906 85.8172 46.8813C86.4828 45.9719 87.1703 45.1224 87.8797 44.3328C88.588 43.5432 89.1828 42.8682 89.6641 42.3078C90.1453 42.8682 90.7401 43.5432 91.4484 44.3328C92.1578 45.1224 92.8453 45.9719 93.5109 46.8813C94.1755 47.7906 94.7422 48.776 95.2109 49.8375C95.6797 50.899 95.9141 51.9948 95.9141 53.125C95.9141 54.8479 95.3031 56.3203 94.0813 57.5422C92.8594 58.7641 91.387 59.375 89.6641 59.375C87.9411 59.375 86.4687 58.7641 85.2469 57.5422ZM7.27813 92.7219C2.42604 87.8708 0 81.9635 0 75C0 70.6406 1.09375 66.5599 3.28125 62.7578C5.46875 58.9557 8.54167 55.825 12.5 53.3656V12.5C12.5 8.97396 13.7021 6.00938 16.1063 3.60625C18.5104 1.20209 21.475 0 25 0C28.526 0 31.4911 1.20209 33.8953 3.60625C36.2984 6.00938 37.5 8.97396 37.5 12.5V53.3656C41.4583 55.825 44.5312 58.9557 46.7188 62.7578C48.9062 66.5599 50 70.6406 50 75C50 81.9635 47.5745 87.8708 42.7234 92.7219C37.8714 97.574 31.9635 100 25 100C18.0375 100 12.1302 97.574 7.27813 92.7219ZM6.25 75H43.75C43.75 71.899 42.9188 68.9062 41.2563 66.0219C39.5938 63.1375 37.2042 60.5693 34.0875 58.3172L31.25 56.25V12.5C31.25 10.7292 30.651 9.24479 29.4531 8.04688C28.2552 6.84896 26.7708 6.25 25 6.25C23.2292 6.25 21.7448 6.84896 20.5469 8.04688C19.349 9.24479 18.75 10.7292 18.75 12.5V56.25L15.9141 58.3172C12.7974 60.5693 10.4078 63.1375 8.74531 66.0219C7.08177 68.9062 6.25 71.899 6.25 75Z" fill="white"/>
</svg>
