<svg width="94" height="100" viewBox="0 0 94 100" fill="none" xmlns="http://www.w3.org/2000/svg">
<path d="M0 55.688C0 50.5462 1.19877 45.4202 3.5963 40.3102C5.99383 35.2001 8.96956 30.2701 12.5235 25.5202C16.0774 20.7703 19.9029 16.3037 23.9999 12.1203C28.097 7.93699 31.8696 4.28156 35.3178 1.15405C35.7953 0.699341 36.2829 0.393323 36.7804 0.235993C37.278 0.0786624 37.7755 0 38.2731 0C38.7916 0 39.2946 0.0786624 39.7821 0.235993C40.2687 0.393323 40.7398 0.699341 41.1955 1.15405C44.2591 3.96599 47.403 6.94799 50.6271 10.1C53.852 13.2512 56.9294 16.6074 59.8591 20.1687C62.2356 23.0434 64.4509 25.9868 66.5049 28.9988C68.5589 32.0099 70.3605 35.1246 71.9096 38.3431C72.2176 38.986 72.2313 39.6399 71.9506 40.3047C71.6709 40.9695 71.1979 41.4556 70.5318 41.763C69.8657 42.0713 69.1717 42.0854 68.45 41.8053C67.7283 41.5252 67.213 41.0636 66.904 40.4207C64.4509 35.3133 60.8323 29.8691 56.0482 24.0879C51.264 18.3058 45.339 12.1967 38.2731 5.76074C27.429 15.6734 19.2504 24.8131 13.7373 33.1798C8.22415 41.5465 5.46758 49.0493 5.46758 55.688C5.46758 65.629 8.43784 73.5637 14.3784 79.4922C20.3189 85.4207 27.9298 88.7069 37.211 89.3508C38.2134 89.4135 38.9146 89.7614 39.3146 90.3943C39.7138 91.0273 39.8924 91.6762 39.8505 92.341C39.8085 93.0058 39.5543 93.611 39.0877 94.1566C38.6221 94.7023 37.9546 94.9542 37.0852 94.9124C26.2057 94.2476 17.3049 90.3316 10.3829 83.1644C3.46098 75.9982 0 66.8394 0 55.688ZM54.7756 99.8287C54.1131 99.5941 53.6593 99.1867 53.4142 98.6064L52.836 97.2096C52.1771 95.7336 51.6882 94.2071 51.3693 92.6302C51.0503 91.0523 50.8909 89.4695 50.8909 87.8816C50.8909 85.9509 51.136 84.0429 51.6263 82.1577C52.1174 80.2725 52.7836 78.4204 53.6247 76.6016C54.3537 75.0556 54.9916 73.4518 55.5383 71.7903C56.0851 70.1288 56.3584 68.3991 56.3584 66.6011C56.3584 65.0969 56.199 63.6382 55.88 62.225C55.5611 60.8117 55.0932 59.434 54.4762 58.0917L54.2343 57.8188C53.9892 57.2377 53.9837 56.6116 54.2179 55.9404C54.453 55.2684 54.8617 54.81 55.444 54.5654C56.0254 54.3207 56.6473 54.3153 57.3098 54.549C57.9723 54.7836 58.4261 55.1915 58.6712 55.7726L59.2494 57.104C59.9083 58.5809 60.3972 60.1306 60.7161 61.753C61.0351 63.3763 61.1945 64.9924 61.1945 66.6011C61.1945 68.5318 60.9494 70.4171 60.4591 72.2568C59.968 74.0966 59.3018 75.9259 58.4607 77.7447C57.7317 79.2908 57.0938 80.9173 56.5471 82.6242C56.0003 84.3312 55.7269 86.0837 55.7269 87.8816C55.7269 89.2949 55.8636 90.6854 56.137 92.0531C56.4104 93.4209 56.8555 94.7305 57.4725 95.9818L57.8511 96.6639C58.0962 97.245 58.1017 97.8539 57.8675 98.4905C57.6324 99.1271 57.2237 99.5677 56.6414 99.8123C56.06 100.057 55.4381 100.062 54.7756 99.8287ZM71.1783 99.8287C70.5158 99.5941 70.062 99.1867 69.8169 98.6064L69.2387 97.2096C68.5798 95.7336 68.091 94.2071 67.772 92.6302C67.4531 91.0523 67.2936 89.4695 67.2936 87.8816C67.2936 85.9509 67.5387 84.0429 68.029 82.1577C68.5202 80.2725 69.1863 78.4204 70.0274 76.6016C70.7564 75.0556 71.3943 73.4518 71.941 71.7903C72.4878 70.1288 72.7612 68.3991 72.7612 66.6011C72.7612 65.0969 72.6017 63.6382 72.2828 62.225C71.9638 60.8117 71.4959 59.434 70.879 58.0917L70.637 57.8188C70.3919 57.2377 70.3864 56.6116 70.6206 55.9404C70.8557 55.2684 71.2644 54.81 71.8467 54.5654C72.4281 54.3207 73.0501 54.3153 73.7125 54.549C74.375 54.7836 74.8288 55.1915 75.074 55.7726L75.6522 57.104C76.311 58.6719 76.7999 60.2443 77.1189 61.8212C77.4378 63.399 77.5973 64.9924 77.5973 66.6011C77.5973 68.4618 77.3872 70.312 76.9671 72.1518C76.5461 73.9915 75.9151 75.7508 75.074 77.4296C74.2748 79.1157 73.5845 80.83 73.0031 82.5724C72.4208 84.314 72.1297 86.0837 72.1297 87.8816C72.1297 89.2949 72.2664 90.6854 72.5397 92.0531C72.8131 93.4209 73.2583 94.7305 73.8752 95.9818L74.2538 96.6639C74.499 97.245 74.5044 97.8539 74.2702 98.4905C74.0351 99.1271 73.6264 99.5677 73.0441 99.8123C72.4628 100.057 71.8408 100.062 71.1783 99.8287ZM90.1153 54.549C90.7778 54.7836 91.2316 55.1915 91.4767 55.7726L92.0549 57.104C92.7839 58.5809 93.2906 60.1306 93.5749 61.753C93.8583 63.3763 94 64.9924 94 66.6011C94 68.4618 93.79 70.3175 93.3699 72.1682C92.9489 74.0179 92.3178 75.7827 91.4767 77.4624C90.6775 79.1475 89.9873 80.8559 89.4059 82.5874C88.8236 84.319 88.5324 86.0837 88.5324 87.8816C88.5324 89.2949 88.6691 90.6854 88.9425 92.0531C89.2159 93.4209 89.661 94.7305 90.2779 95.9818L90.6566 96.6639C90.7896 97.0004 90.8561 97.3187 90.8561 97.6188C90.8561 97.9198 90.8001 98.2104 90.688 98.4905C90.5759 98.7706 90.4251 99.0275 90.2356 99.2612C90.0469 99.4959 89.784 99.6796 89.4469 99.8123C88.8655 100.057 88.2436 100.062 87.5811 99.8287C86.9186 99.5941 86.4648 99.1867 86.2196 98.6064L85.6414 97.2096C84.9826 95.7336 84.4937 94.2071 84.1748 92.6302C83.8558 91.0523 83.6964 89.4695 83.6964 87.8816C83.6964 85.9509 83.9415 84.0429 84.4317 82.1577C84.9229 80.2725 85.589 78.4204 86.4301 76.6016C87.1591 75.0556 87.797 73.4518 88.3438 71.7903C88.8905 70.1288 89.1639 68.3991 89.1639 66.6011C89.1639 65.0969 89.0045 63.6382 88.6855 62.225C88.3666 60.8117 87.8986 59.434 87.2817 58.0917L87.0398 57.8188C86.7946 57.2377 86.7892 56.6116 87.0234 55.9404C87.2585 55.2684 87.6672 54.81 88.2495 54.5654C88.8309 54.3207 89.4528 54.3153 90.1153 54.549Z" fill="white"/>
</svg>
